<?xml version="1.0" standalone="no"?>
<!DOCTYPE svg PUBLIC "-//W3C//DTD SVG 20010904//EN"
 "http://www.w3.org/TR/2001/REC-SVG-20010904/DTD/svg10.dtd">
<svg version="1.0" xmlns="http://www.w3.org/2000/svg"
 width="231.000000pt" height="231.000000pt" viewBox="0 0 231.000000 231.000000"
 preserveAspectRatio="xMidYMid meet">
<metadata>
Created by potrace 1.14, written by Peter Selinger 2001-2017
</metadata>
<g transform="translate(0.000000,231.000000) scale(0.100000,-0.100000)"
fill="#000000" stroke="none">
<path d="M1079 1757 c-42 -56 -84 -114 -94 -129 l-17 -28 59 -57 c34 -34 73
-86 94 -125 l34 -67 35 67 c20 39 59 91 93 124 l59 58 -33 51 c-18 28 -37 56
-43 62 -6 7 -34 42 -61 80 -27 37 -49 67 -49 67 -1 0 -35 -46 -77 -103z"/>
<path d="M825 1808 c-2 -7 -8 -36 -14 -63 -5 -28 -13 -57 -16 -66 -5 -13 7
-21 63 -38 87 -26 86 -26 100 2 6 12 20 36 32 53 l21 32 -86 46 c-94 51 -94
51 -100 34z"/>
<path d="M1385 1774 c-44 -24 -79 -49 -77 -55 1 -6 17 -32 35 -57 l32 -47 71
25 70 25 -16 74 c-9 41 -20 76 -25 77 -6 1 -46 -18 -90 -42z"/>
<path d="M594 1548 c5 -117 12 -173 21 -188 3 -4 16 -5 29 -3 43 9 153 -16
212 -47 l56 -29 -7 42 c-14 77 -14 178 1 219 l14 39 -34 14 c-34 14 -266 75
-287 75 -8 0 -10 -32 -5 -122z"/>
<path d="M1560 1636 c-157 -41 -174 -49 -158 -79 20 -37 15 -231 -7 -266 -7
-12 22 -4 41 10 34 27 141 52 217 51 28 0 47 5 48 12 0 6 2 20 5 31 2 11 6 77
10 148 6 149 24 139 -156 93z"/>
<path d="M941 1530 c-5 -17 -9 -65 -7 -108 4 -95 34 -176 86 -237 21 -24 53
-64 71 -90 22 -30 35 -41 40 -33 13 21 2 230 -14 274 -25 69 -56 123 -94 165
-54 60 -69 65 -82 29z"/>
<path d="M1309 1521 c-54 -47 -103 -135 -123 -218 -13 -56 -19 -228 -9 -246 7
-12 38 18 88 83 82 108 122 224 112 331 -8 92 -15 97 -68 50z"/>
<path d="M403 1512 c-24 -2 -43 -4 -43 -5 0 -5 52 -164 61 -188 l10 -26 73 30
72 29 -6 54 c-3 30 -7 57 -8 59 -1 3 -2 15 -2 28 0 21 -4 23 -57 22 -32 0 -77
-1 -100 -3z"/>
<path d="M1755 1511 c-2 -4 -6 -38 -10 -76 -4 -39 -9 -73 -11 -76 -2 -4 108
-54 140 -62 8 -2 79 203 73 210 -6 5 -188 9 -192 4z"/>
<path d="M648 1322 l-28 -3 25 -47 c61 -119 187 -198 359 -225 l85 -14 -17 30
c-9 16 -47 62 -84 102 -101 109 -235 171 -340 157z"/>
<path d="M545 1303 c-51 -17 -265 -125 -265 -133 0 -4 53 -61 118 -127 140
-144 191 -174 309 -181 111 -7 196 19 331 100 17 11 32 23 32 28 0 4 -24 11
-52 14 -182 24 -351 134 -412 267 l-21 46 -40 -14z"/>
<path d="M1519 1297 c-91 -31 -141 -67 -197 -139 -26 -34 -54 -69 -62 -78 -27
-28 -45 -54 -35 -48 6 3 36 9 67 12 124 15 235 65 312 141 46 45 90 117 79
129 -14 13 -101 4 -164 -17z"/>
<path d="M1702 1266 c-57 -130 -233 -241 -417 -262 l-58 -7 29 -24 c82 -66
227 -114 336 -112 120 3 176 34 321 182 64 66 117 123 117 127 0 7 -215 115
-267 134 l-38 13 -23 -51z"/>
<path d="M1596 785 c-18 -13 -20 -28 -20 -128 -1 -109 0 -112 22 -115 21 -3
22 -1 22 91 0 53 3 102 6 111 5 12 20 16 60 16 47 0 54 2 54 20 0 18 -7 20
-62 20 -40 -1 -70 -6 -82 -15z"/>
<path d="M400 673 c0 -60 4 -114 8 -121 6 -9 36 -12 112 -10 89 3 103 5 106
21 1 10 -4 17 -14 18 -10 0 -51 1 -92 2 l-75 2 0 98 c0 94 -1 97 -22 97 -22 0
-23 -3 -23 -107z"/>
<path d="M694 718 c-37 -10 -44 -23 -44 -89 0 -74 16 -89 98 -89 82 0 102 18
102 93 0 40 -5 58 -18 71 -21 18 -95 26 -138 14z m112 -80 c3 -42 -7 -52 -51
-55 -54 -3 -65 5 -65 46 0 21 3 41 7 45 4 4 30 6 57 4 l50 -3 2 -37z"/>
<path d="M896 722 c-4 -7 -9 -108 -7 -161 1 -22 4 -23 41 -18 22 3 54 14 72
25 38 24 103 125 95 147 -9 23 -36 7 -56 -34 -25 -47 -69 -91 -92 -91 -17 0
-19 8 -19 64 0 47 -4 65 -15 69 -8 4 -16 3 -19 -1z"/>
<path d="M1163 719 c-33 -12 -45 -37 -45 -90 1 -70 19 -89 89 -89 46 0 53 3
53 19 0 17 -8 20 -47 23 l-48 3 0 45 0 45 44 3 c52 4 72 -3 65 -21 -3 -9 -20
-13 -49 -13 -40 1 -45 -1 -45 -21 0 -21 5 -23 48 -23 55 0 78 14 87 51 10 41
-20 68 -82 72 -28 2 -60 0 -70 -4z"/>
<path d="M1395 720 c-38 -7 -53 -38 -49 -103 4 -64 20 -77 90 -77 44 0 52 3
50 18 -2 13 -14 18 -49 20 -48 3 -49 5 -49 52 0 50 0 50 58 50 47 0 55 -3 52
-17 -3 -19 -6 -20 -62 -22 -28 -1 -34 -5 -33 -21 1 -17 8 -20 53 -20 38 0 55
5 69 20 21 23 23 66 4 85 -15 16 -87 24 -134 15z"/>
<path d="M1652 719 c-14 -5 -20 -14 -16 -24 4 -11 20 -15 55 -15 42 0 49 3 49
20 0 11 -6 20 -12 21 -7 0 -23 2 -34 3 -12 1 -31 -1 -42 -5z"/>
<path d="M1765 645 c3 -91 14 -104 93 -105 45 0 52 2 52 20 0 14 -7 20 -22 21
-79 3 -73 -2 -76 72 -3 62 -4 67 -26 67 -22 0 -23 -3 -21 -75z"/>
<path d="M1925 619 c1 -112 -6 -124 -65 -114 -27 5 -30 3 -30 -20 0 -23 3 -25
50 -25 80 0 90 16 90 150 0 108 0 110 -23 110 -22 0 -23 -2 -22 -101z"/>
</g>
</svg>
